/* XPM */
static char *tk[] = {
/* columns rows colors chars-per-pixel */
"16 16 44 1 ",
"  c #5F5F0A0A0A0A",
". c #5B5B1F1F1F1F",
"X c #6A6A03030303",
"o c #6F6F0F0F0F0F",
"O c #787800000000",
"+ c #7A7A0F0F0F0F",
"@ c #646413131313",
"# c #666614141414",
"$ c #6A6A13131313",
"% c #6A6A14141414",
"& c #6E6E16161616",
"* c #6A6A1E1E1E1E",
"= c #727212121212",
"- c #787812121212",
"; c #7A7A12121212",
": c #7B7B15151515",
"> c #747418181818",
", c #71711C1C1C1C",
"< c #71711F1F1F1F",
"1 c #666624242424",
"2 c #868600000000",
"3 c #858507070707",
"4 c #808008080808",
"5 c #85850D0D0D0D",
"6 c #85850E0E0E0E",
"7 c #8D8D0E0E0E0E",
"8 c #8E8E0F0F0F0F",
"9 c #959500000000",
"0 c #969605050505",
"q c #949406060606",
"w c #9F9F07070707",
"e c #95950A0A0A0A",
"r c #94940B0B0B0B",
"t c #9B9B08080808",
"y c #828211111111",
"u c #858510101010",
"i c #848414141414",
"p c #898910101010",
"a c #828219191919",
"s c #A3A300000000",
"d c #A2A201010101",
"f c #ABAB00000000",
"g c #A1A108080808",
"h c None",
/* pixels */
"hhhhhhhhhhhhhhhh",
"hhhhhh#1hhhhhhhh",
"hhhhho%@hhhhhhhh",
"hhhh+h,$hhhhhhhh",
"hhhyhh>&hhhhhhhh",
"hhahhh-hhhhhhhhh",
"hhhhhh4hhhhhh.hh",
"hhhhhh3hhhh* hhh",
"hhhhhi5hhh=Xhhhh",
"hhhhh8phh-O,hhhh",
"hhhhhe8hu2:hhhhh",
"hhhhhts095hhhhhh",
"hhhhhgfsehhhhhhh",
"hhhhhhgehhhhhhhh",
"hhhhhhhhhhhhhhhh",
"hhhhhhhhhhhhhhhh"
};
